<svg xmlns="http://www.w3.org/2000/svg" width="40" height="40" viewBox="0 0 40 40"><g transform="translate(0 -0.001)"><path d="M.047,2.986A3.109,3.109,0,0,1,2.986.047a30.877,30.877,0,0,1,15.479,3.1A30.389,30.389,0,0,1,27.339,10.5l.094.115,5.858.453a3.092,3.092,0,0,1,2.356,1.386l4,6.045a2.142,2.142,0,0,1-1.459,3.3l-4.935.764c.017.1.035.192.051.288a3.107,3.107,0,0,1-.871,2.7l-6.874,6.874a3.115,3.115,0,0,1-2.2.913,3.063,3.063,0,0,1-.5-.042l-.288-.051L21.8,38.185a2.14,2.14,0,0,1-3.3,1.459l-6.045-4a3.092,3.092,0,0,1-1.386-2.356l-.453-5.858-.115-.094a30.386,30.386,0,0,1-7.358-8.874A30.879,30.879,0,0,1,.047,2.986Zm13.7,30.706,5.782,3.823.745-4.81a26.253,26.253,0,0,1-7.164-3.411l.295,3.816a.763.763,0,0,0,.342.582ZM23.9,30.772,30.772,23.9a.76.76,0,0,0,.217-.659,20.159,20.159,0,0,0-.915-3.481L19.759,30.072a20.245,20.245,0,0,0,3.479.917.76.76,0,0,0,.659-.217ZM33.11,13.407l-3.816-.295a26.25,26.25,0,0,1,3.411,7.164l4.81-.745L33.692,13.75A.763.763,0,0,0,33.11,13.407ZM12,25.539a26.869,26.869,0,0,0,5.425,3.548L29.087,17.429A27.334,27.334,0,0,0,25.539,12a27.967,27.967,0,0,0-8.151-6.778A28.506,28.506,0,0,0,3.113,2.387a.769.769,0,0,0-.727.727,28.5,28.5,0,0,0,2.84,14.274A27.967,27.967,0,0,0,12,25.539Z" transform="translate(0 0)" fill="#1c4ef3"/><path d="M281.582,98.031a5.855,5.855,0,1,1,4.143-1.713A5.842,5.842,0,0,1,281.582,98.031Zm2.486-8.342a3.515,3.515,0,1,0,1.03,2.486A3.5,3.5,0,0,0,284.068,89.689Z" transform="translate(-268.982 -79.574)" fill="#1c4ef3"/><path d="M5.3,349.134a1.168,1.168,0,0,1-.829-.343L.645,344.965A1.172,1.172,0,1,1,2.3,343.308l3.826,3.826a1.172,1.172,0,0,1-.829,2Z" transform="translate(33.505 -316.17)" fill="#1c4ef3"/><path d="M.344,388.189a1.172,1.172,0,0,1,1.657,0l7.356,7.356A1.172,1.172,0,1,1,7.7,397.2L.344,389.846A1.172,1.172,0,0,1,.344,388.189Z" transform="translate(30.3 -357.544)" fill="#1c4ef3"/><path d="M92.063,433.07l3.826,3.826a1.172,1.172,0,1,1-1.657,1.657l-3.826-3.826a1.172,1.172,0,1,1,1.657-1.657Z" transform="translate(-63.268 -398.919)" fill="#1c4ef3"/></g></svg>