<svg xmlns="http://www.w3.org/2000/svg" width="46" height="46.001" viewBox="0 0 46 46.001"><g transform="translate(0)"><g transform="translate(0)"><path d="M11.815,42.407H5.453a1.826,1.826,0,0,1-1.437-.683,1.878,1.878,0,0,1-.381-1.574A19.853,19.853,0,0,1,22.543,24.428c.152.006.3.009.458.009s.309,0,.462-.01a19.681,19.681,0,0,1,6.49,1.25,1.8,1.8,0,0,0,1.263-3.364q-.446-.168-.9-.316A12.219,12.219,0,1,0,15.691,22,23.367,23.367,0,0,0,.117,39.417,5.459,5.459,0,0,0,5.453,46h6.362a1.8,1.8,0,1,0,0-3.594Zm2.561-30.188a8.625,8.625,0,1,1,9.045,8.615c-.14,0-.28,0-.42,0s-.281,0-.421,0A8.636,8.636,0,0,1,14.375,12.219Z" transform="translate(0)" fill="#1cbcf3"/><path d="M177.507,315.84a4.842,4.842,0,0,0-4.418-2.84h-5.616a4.757,4.757,0,0,0-4.495,3.037c-.094.246-.21.555-.33.916H150.883a1.8,1.8,0,0,0-1.289.545l-3.087,3.179a1.8,1.8,0,0,0,.008,2.511l3.145,3.2a1.8,1.8,0,0,0,1.282.537h5.84a1.8,1.8,0,0,0,0-3.594h-5.086l-1.386-1.41,1.335-1.375H164a1.8,1.8,0,0,0,1.745-1.37,14.85,14.85,0,0,1,.592-1.85,1.178,1.178,0,0,1,1.145-.733h5.607a1.226,1.226,0,0,1,1.141.713,11.605,11.605,0,0,1,1.063,4.581,11.947,11.947,0,0,1-1.055,4.662,1.227,1.227,0,0,1-1.128.736h-5.674a1.279,1.279,0,0,1-1.159-.8,11.942,11.942,0,0,1-.557-1.779,1.8,1.8,0,1,0-3.5.836,15.467,15.467,0,0,0,.73,2.312,4.847,4.847,0,0,0,4.477,3.019h5.683a4.818,4.818,0,0,0,4.419-2.893,15.554,15.554,0,0,0,1.354-6.107A15.213,15.213,0,0,0,177.507,315.84Z" transform="translate(-132.882 -284.879)" fill="#1cbcf3"/><circle cx="2.5" cy="2.5" r="2.5" transform="translate(36.001 34.001)" fill="#1cbcf3"/></g></g></svg>