<svg xmlns="http://www.w3.org/2000/svg" width="44.002" height="43.996" viewBox="0 0 44.002 43.996"><g transform="translate(-1 -1)"><g transform="translate(1 1)"><path d="M41.823,27.667H36.2a5.1,5.1,0,0,0-9.787,0H2.467a1.467,1.467,0,1,0,0,2.933H26.418a5.1,5.1,0,0,0,9.783,0h5.618a1.467,1.467,0,1,0,0-2.933ZM31.313,31.334a2.2,2.2,0,1,1,2.2-2.2A2.2,2.2,0,0,1,31.313,31.334Z" transform="translate(-1 9.734)" fill="#379df1"/><path d="M40.4,1H5.606A4.61,4.61,0,0,0,1,5.606V28.663a4.61,4.61,0,0,0,4.606,4.606H40.4A4.61,4.61,0,0,0,45,28.662V5.606A4.61,4.61,0,0,0,40.4,1Zm1.672,27.663A1.674,1.674,0,0,1,40.4,30.335H5.606a1.674,1.674,0,0,1-1.672-1.672V5.606A1.674,1.674,0,0,1,5.606,3.933H40.4a1.674,1.674,0,0,1,1.672,1.672Z" transform="translate(-1 -1)" fill="#379df1"/><path d="M25.978,13.557,14.244,6.223A1.467,1.467,0,0,0,12,7.467V22.134a1.467,1.467,0,0,0,2.244,1.244l11.734-7.334a1.467,1.467,0,0,0,0-2.493ZM14.933,19.494V10.107l7.5,4.694Z" transform="translate(4.134 1.334)" fill="#379df1"/></g></g></svg>