<svg xmlns="http://www.w3.org/2000/svg" width="44.011" height="43.997" viewBox="0 0 44.011 43.997"><g transform="translate(-1 -1.005)"><g transform="translate(1 1.005)"><path d="M17.4,12.935a4.412,4.412,0,1,0-4.412-4.413A4.418,4.418,0,0,0,17.4,12.935Zm0-5.89a1.478,1.478,0,1,1-1.478,1.477A1.479,1.479,0,0,1,17.4,7.045Z" transform="translate(4.601 0.446)" fill="#3680f0"/><path d="M40.61,14.208H35.269c.021-.3.045-.592.045-.894a12.309,12.309,0,1,0-24.617,0c0,.3.024.6.045.894H5.4a4.406,4.406,0,0,0-4.4,4.4V40.6A4.406,4.406,0,0,0,5.4,45H40.61a4.406,4.406,0,0,0,4.4-4.4V18.609a4.406,4.406,0,0,0-4.4-4.4ZM23.006,3.939a9.366,9.366,0,0,1,7.817,14.539,11.458,11.458,0,0,0-15.633,0A9.366,9.366,0,0,1,23.006,3.939Zm5.836,16.7a9.329,9.329,0,0,1-11.673,0,8.54,8.54,0,0,1,11.673,0ZM42.077,40.6a1.468,1.468,0,0,1-1.467,1.467H5.4A1.468,1.468,0,0,1,3.934,40.6V18.609A1.468,1.468,0,0,1,5.4,17.142h5.913a12.3,12.3,0,0,0,23.383,0H40.61a1.468,1.468,0,0,1,1.467,1.467Z" transform="translate(-1 -1.005)" fill="#3680f0"/><path d="M30.311,18.666H10.543a4.021,4.021,0,0,0,0,8.042H30.311a4.021,4.021,0,0,0,0-8.042Zm0,5.107H10.543a1.087,1.087,0,1,1,0-2.173H30.311a1.087,1.087,0,1,1,0,2.173Z" transform="translate(1.579 7.244)" fill="#3680f0"/><path d="M22.995,25.309h-9.9a1.467,1.467,0,1,0,0,2.934h9.9a1.467,1.467,0,1,0,0-2.934Z" transform="translate(3.962 10.346)" fill="#3680f0"/></g></g></svg>